<svg id="goldenLines" width="389" height="5069" viewBox="0 0 389 5069" fill="none" xmlns="http://www.w3.org/2000/svg">
<path id="path1" d="M166.531 -2.98389C166.531 -2.98389 176.031 35.5161 170.032 104.516C155.305 273.877 -27.182 371.957 6.03157 601.016C35.0316 801.016 305.373 859 258.873 1144C216.992 1400.69 -17.9683 1408.02 37.0316 1700.52C92.0314 1993.02 318.873 2010.5 300.373 2312.5C280.685 2633.9 56.2568 2647 37.0316 2982C17.0316 3330.5 273.032 3386.52 340.032 3660.02C412.486 3955.78 90.5937 4078.88 107.373 4451.5C121.873 4773.5 295.373 4803.5 340.032 5075.5" stroke="#D1B160" stroke-width="3"/>
<g filter="url(#filter0_f)">
<path id="path2" d="M180.032 -3.98388C180.032 -3.98388 199.032 -8.26041 199.032 122.516C199.032 251.016 68.2689 399.563 64.3733 511.5C56.8735 727 242.626 801.373 229.873 1019C214.872 1275 81.8731 1389.5 81.8731 1588C81.8731 1862.79 231.873 1884.5 234.873 2220.5C237.873 2556.5 90.5316 2633.02 93.5316 2977.52C96.5316 3322.02 309.531 3529.02 291.531 3772.52C273.531 4016.02 49.8733 4247 52.8733 4481.5C55.8733 4716 269.373 4819.5 295.373 5071.5" stroke="#D1B160"/>
</g>
<path id="path3" d="M147.531 -0.483887C164.031 176.516 1.02214 353.982 39.0315 627.016C69.0316 842.516 267.268 904 238.873 1133.5C205.725 1401.42 76.8732 1422 63.8732 1689.5C54.4563 1883.27 350.873 2008 333.873 2277.5C312.862 2610.6 55.2149 2527.98 4.8732 2905.5C-32.0744 3182.57 399.425 3380.69 388.373 3695.5C373.032 4132.5 25.8732 4154 25.8732 4467C25.8732 4780 333.531 4958.52 373.032 5071.02" stroke="#D1B160" stroke-width="0.75"/>
<defs>
<filter id="filter0_f" x="47.3434" y="-9.5" width="253.527" height="5086.05" filterUnits="userSpaceOnUse" color-interpolation-filters="sRGB">
<feFlood flood-opacity="0" result="BackgroundImageFix"/>
<feBlend mode="normal" in="SourceGraphic" in2="BackgroundImageFix" result="shape"/>
<feGaussianBlur stdDeviation="2.5" result="effect1_foregroundBlur"/>
</filter>
</defs>
</svg>
