<svg xmlns="http://www.w3.org/2000/svg" style="display: none;"><symbol id="linkedin" viewBox="0 0 512 512"><title>linkedin</title><path d="m256 0c-141.363281 0-256 114.636719-256 256s114.636719 256 256 256 256-114.636719 256-256-114.636719-256-256-256zm-74.390625 387h-62.347656v-187.574219h62.347656zm-31.171875-213.1875h-.40625c-20.921875 0-34.453125-14.402344-34.453125-32.402344 0-18.40625 13.945313-32.410156 35.273437-32.410156 21.328126 0 34.453126 14.003906 34.859376 32.410156 0 18-13.53125 32.402344-35.273438 32.402344zm255.984375 213.1875h-62.339844v-100.347656c0-25.21875-9.027343-42.417969-31.585937-42.417969-17.222656 0-27.480469 11.601563-31.988282 22.800781-1.648437 4.007813-2.050781 9.609375-2.050781 15.214844v104.75h-62.34375s.816407-169.976562 0-187.574219h62.34375v26.558594c8.285157-12.78125 23.109375-30.960937 56.1875-30.960937 41.019531 0 71.777344 26.808593 71.777344 84.421874zm0 0"/></symbol><symbol id="github-logo" viewBox="0 0 35.318 35.318"><title>github-logo</title><path d="M23.71,34.689c-0.172,0.062-0.345,0.137-0.522,0.168c-0.678,0.121-1.112-0.229-1.116-0.922 c-0.009-1.287-0.009-2.572,0.012-3.859c0.022-1.48-0.012-2.941-1.139-4.162c0.67-0.12,1.266-0.204,1.849-0.338 c3.862-0.887,5.868-3.323,6.124-7.366c0.131-2.058-0.236-3.946-1.604-5.567c-0.099-0.114-0.104-0.373-0.057-0.539 c0.364-1.34,0.258-2.649-0.166-3.959c-0.105-0.327-0.279-0.428-0.602-0.407c-1.134,0.063-2.173,0.461-3.089,1.073 c-0.883,0.593-1.705,0.722-2.754,0.482c-2.31-0.521-4.635-0.369-6.94,0.165c-0.261,0.062-0.612-0.021-0.851-0.161 c-1.082-0.634-2.164-1.25-3.412-1.496c-0.965-0.188-1.049-0.14-1.305,0.793C7.816,9.77,7.784,10.947,8.113,12.13 c0.047,0.172-0.002,0.448-0.117,0.575c-2.557,2.853-1.631,8.244,0.092,10.309c1.34,1.604,3.12,2.326,5.096,2.701 c0.345,0.064,0.688,0.113,1.033,0.173c-0.296,0.77-0.562,1.497-0.863,2.212c-0.059,0.138-0.246,0.254-0.399,0.312 c-1.938,0.752-3.604,0.199-4.713-1.56c-0.593-0.938-1.354-1.639-2.488-1.842c-0.036-0.007-0.073-0.026-0.106-0.021 c-0.305,0.08-0.607,0.164-0.911,0.246c0.171,0.238,0.292,0.558,0.521,0.701c0.961,0.608,1.586,1.475,1.999,2.498 c0.649,1.604,1.909,2.319,3.546,2.459c0.799,0.065,1.606,0.01,2.481,0.01c0,0.996,0.036,2.133-0.015,3.265 c-0.026,0.61-0.639,0.854-1.373,0.604c-1.947-0.666-3.752-1.621-5.311-2.963C0.956,26.96-1.214,20.83,0.657,13.655 C2.522,6.503,7.383,2.116,14.651,0.739C24.708-1.163,34.235,6.161,35.233,16.37C36.021,24.418,31.284,31.949,23.71,34.689z M14.229,25.85c-0.006,0.014-0.01,0.024-0.016,0.038c0.018,0.003,0.036,0.006,0.055,0.009 C14.282,25.898,14.294,25.923,14.229,25.85z M9.679,29.031c0.157,0.097,0.307,0.22,0.477,0.273c0.062,0.02,0.177-0.121,0.38-0.271 c-0.282-0.107-0.448-0.201-0.623-0.225C9.845,28.8,9.757,28.953,9.679,29.031z M11.112,29.277c0.023,0.105,0.232,0.236,0.355,0.234 c0.119-0.002,0.235-0.16,0.354-0.25c-0.108-0.099-0.216-0.195-0.548-0.494C11.201,28.975,11.082,29.143,11.112,29.277z M12.87,28.854c-0.148,0.035-0.273,0.172-0.408,0.266c0.079,0.1,0.158,0.193,0.285,0.35c0.175-0.16,0.294-0.271,0.414-0.379 C13.061,29.004,12.944,28.836,12.87,28.854z M8.512,28.261c0.082,0.155,0.209,0.289,0.381,0.508 c0.115-0.188,0.24-0.332,0.218-0.361c-0.109-0.143-0.257-0.26-0.403-0.367C8.698,28.033,8.495,28.227,8.512,28.261z"/></symbol><symbol id="phone-symbol-of-an-auricular-inside-a-circle" viewBox="0 0 485.213 485.212"><title>phone-symbol-of-an-auricular-inside-a-circle</title><path d="M242.607,0C108.629,0,0.001,108.628,0.001,242.606c0,133.976,108.628,242.606,242.606,242.606 c133.978,0,242.604-108.631,242.604-242.606C485.212,108.628,376.585,0,242.607,0z M370.719,353.989l-19.425,19.429 c-3.468,3.463-13.623,5.624-13.949,5.624c-61.452,0.536-120.621-23.602-164.095-67.08c-43.593-43.618-67.759-102.998-67.11-164.657 c0-0.028,2.224-9.892,5.689-13.324l19.424-19.427c7.108-7.141,20.762-10.368,30.327-7.168l4.086,1.363 c9.537,3.197,19.55,13.742,22.185,23.457l9.771,35.862c2.635,9.743-0.919,23.604-8.025,30.712l-12.97,12.972 c12.734,47.142,49.723,84.138,96.873,96.903l12.965-12.975c7.141-7.141,20.997-10.692,30.719-8.061l35.857,9.806 c9.717,2.67,20.26,12.62,23.456,22.154l1.363,4.145C381.028,333.262,377.826,346.913,370.719,353.989z"/></symbol><symbol id="closed-envelope-circle" viewBox="0 0 612 612"><title>closed-envelope-circle</title><path style="fill:#010002;" d="M306,612c-28.152,0-55.284-3.672-81.396-11.016c-26.112-7.347-50.49-17.646-73.134-30.906 s-43.248-29.172-61.812-47.736c-18.564-18.562-34.476-39.168-47.736-61.812c-13.26-22.646-23.562-47.022-30.906-73.135 C3.672,361.284,0,334.152,0,306s3.672-55.284,11.016-81.396s17.646-50.49,30.906-73.134s29.172-43.248,47.736-61.812 s39.168-34.476,61.812-47.736s47.022-23.562,73.134-30.906S277.848,0,306,0c42.024,0,81.702,8.058,119.034,24.174 s69.768,37.944,97.308,65.484s49.368,59.976,65.484,97.308S612,263.976,612,306c0,28.152-3.672,55.284-11.016,81.396 c-7.347,26.109-17.646,50.487-30.906,73.134c-13.26,22.644-29.172,43.248-47.736,61.812 c-18.562,18.564-39.168,34.479-61.812,47.736c-22.646,13.26-47.022,23.562-73.136,30.906C361.284,608.328,334.152,612,306,612z M453.492,179.928H163.404c-2.856,0-5.304,0.918-7.344,2.754s-3.06,4.386-3.06,7.65v32.436c0,1.632,0.612,2.448,1.836,2.448 l152.388,86.904l1.227,0.612c0.813,0,1.428-0.204,1.836-0.612l147.492-86.904c0.813-0.408,1.428-0.612,1.836-0.612 c0.405,0,1.02-0.204,1.836-0.612c1.632,0,2.448-0.816,2.448-2.448v-31.212c0-3.264-1.021-5.814-3.063-7.65 S456.348,179.928,453.492,179.928z M245.412,310.284c0.408-0.408,0.612-1.021,0.612-1.836c0-1.227-0.408-1.836-1.224-1.836 l-87.516-50.185c-1.224-0.408-2.244-0.408-3.06,0c-0.816,0-1.224,0.612-1.224,1.836v131.58c0,1.227,0.612,2.04,1.836,2.448h1.224 c0.816,0,1.224-0.204,1.224-0.612L245.412,310.284z M351.9,320.076c-0.408-1.227-1.431-1.428-3.063-0.612l-33.66,19.584 c-4.08,2.448-8.361,2.448-12.852,0l-29.376-16.521c-1.224-0.816-2.244-0.816-3.06,0l-111.996,104.04 c-0.408,0.405-0.612,1.224-0.612,2.445c0,0.408,0.408,1.021,1.224,1.836c2.448,0.816,4.08,1.227,4.896,1.227H450.43 c0.816,0,1.635-0.408,2.448-1.227c0-1.632-0.204-2.649-0.612-3.06L351.9,320.076z M462.06,253.98h-2.445l-83.232,49.572 c-0.813,0-1.224,0.612-1.224,1.836c-0.408,0.408-0.204,1.02,0.609,1.833L459,397.188c0.816,0.816,1.428,1.227,1.836,1.227h1.224 c1.227-1.227,1.839-2.04,1.839-2.448V256.429C463.896,255.612,463.284,254.796,462.06,253.98z"/></symbol><symbol id="twitter-logo-button" viewBox="0 0 49.652 49.652"><title>twitter-logo-button</title><path d="M24.826,0C11.137,0,0,11.137,0,24.826c0,13.688,11.137,24.826,24.826,24.826c13.688,0,24.826-11.138,24.826-24.826 C49.652,11.137,38.516,0,24.826,0z M35.901,19.144c0.011,0.246,0.017,0.494,0.017,0.742c0,7.551-5.746,16.255-16.259,16.255 c-3.227,0-6.231-0.943-8.759-2.565c0.447,0.053,0.902,0.08,1.363,0.08c2.678,0,5.141-0.914,7.097-2.446 c-2.5-0.046-4.611-1.698-5.338-3.969c0.348,0.066,0.707,0.103,1.074,0.103c0.521,0,1.027-0.068,1.506-0.199 c-2.614-0.524-4.583-2.833-4.583-5.603c0-0.024,0-0.049,0.001-0.072c0.77,0.427,1.651,0.685,2.587,0.714 c-1.532-1.023-2.541-2.773-2.541-4.755c0-1.048,0.281-2.03,0.773-2.874c2.817,3.458,7.029,5.732,11.777,5.972 c-0.098-0.419-0.147-0.854-0.147-1.303c0-3.155,2.558-5.714,5.713-5.714c1.644,0,3.127,0.694,4.171,1.804 c1.303-0.256,2.523-0.73,3.63-1.387c-0.43,1.335-1.333,2.454-2.516,3.162c1.157-0.138,2.261-0.444,3.282-0.899 C37.987,17.334,37.018,18.341,35.901,19.144z"/></symbol><symbol id="behance-logo-button" viewBox="0 0 49.652 49.652"><title>behance-logo-button</title><path d="M20.894,20.686c0-1.9-1.293-1.9-1.293-1.9h-0.685h-4.634H14.28v4.078h4.991C20.134,22.864,20.894,22.589,20.894,20.686z"/><path d="M33.221,22.864c-2.821,0-3.215,2.814-3.215,2.814h6.002C36.008,25.68,36.045,22.864,33.221,22.864z"/><path d="M19.601,25.68h-5.318v4.886h4.711c0.08,0,0.198,0.004,0.339,0c0.757-0.019,2.196-0.235,2.196-2.374 C21.529,25.656,19.601,25.68,19.601,25.68z"/><path d="M24.826,0C11.137,0,0,11.137,0,24.826c0,13.688,11.137,24.826,24.826,24.826c13.688,0,24.826-11.138,24.826-24.826 C49.652,11.137,38.516,0,24.826,0z M29.219,16.615h7.539v2.251h-7.539V16.615z M25.407,28.419c0,5.577-5.806,5.395-5.806,5.395 h-5.318h-0.156h-4.034V15.539h4.034h0.156h5.318c2.891,0,5.172,1.597,5.172,4.867c0,3.269-2.788,3.477-2.788,3.477 C25.66,23.882,25.407,28.419,25.407,28.419z M39.512,28.119h-9.471c0,3.396,3.217,3.182,3.217,3.182 c3.036,0,2.93-1.966,2.93-1.966h3.219c0,5.218-6.254,4.859-6.254,4.859c-7.503,0-7.021-6.985-7.021-6.985 s-0.007-7.022,7.021-7.022C40.549,20.187,39.51,28.119,39.512,28.119z"/></symbol><symbol id="dribble-logo-button" viewBox="0 0 49.652 49.652"><title>dribble-logo-button</title><path d="M24.089,20.454c-2.305-4.097-4.769-7.435-4.945-7.674c-3.714,1.755-6.485,5.176-7.351,9.301 C12.144,22.087,17.694,22.153,24.089,20.454z"/><path d="M21.636,11.894c-0.014,0.006-0.028,0.009-0.042,0.012c0.025-0.005,0.04-0.009,0.04-0.009L21.636,11.894z"/><path d="M33.622,14.831c-2.347-2.066-5.423-3.322-8.796-3.322c-1.082,0-2.132,0.132-3.139,0.375 c0.2,0.264,2.701,3.587,4.979,7.771C31.692,17.769,33.59,14.883,33.622,14.831z"/><path d="M27.094,27.006c-7.864,2.74-10.427,8.267-10.45,8.315c2.258,1.764,5.095,2.825,8.182,2.825 c1.846,0,3.602-0.378,5.2-1.058c-0.197-1.164-0.973-5.242-2.846-10.11C27.151,26.986,27.122,26.995,27.094,27.006z"/><path d="M25.748,24.93c0.174-0.057,0.35-0.11,0.523-0.159c-0.332-0.759-0.697-1.517-1.08-2.265 c-6.856,2.053-13.438,1.902-13.672,1.898c-0.005,0.14-0.011,0.278-0.011,0.42c0,3.422,1.291,6.541,3.411,8.901l-0.005-0.008 C14.915,33.721,18.56,27.253,25.748,24.93z"/><path d="M24.826,0C11.137,0,0,11.137,0,24.826c0,13.688,11.137,24.826,24.826,24.826c13.688,0,24.826-11.138,24.826-24.826 C49.652,11.137,38.516,0,24.826,0z M40.104,27.969c-0.204,1.002-0.512,1.987-0.908,2.931c-0.393,0.924-0.875,1.815-1.438,2.649 c-0.558,0.824-1.199,1.602-1.901,2.308c-0.705,0.704-1.48,1.344-2.308,1.901c-0.834,0.563-1.727,1.047-2.649,1.438 c-0.941,0.397-1.929,0.704-2.931,0.91c-1.026,0.211-2.084,0.315-3.141,0.315c-1.058,0-2.113-0.104-3.141-0.315 c-1.002-0.206-1.989-0.513-2.931-0.91c-0.925-0.392-1.816-0.874-2.65-1.438c-0.825-0.56-1.602-1.197-2.306-1.901 c-0.706-0.706-1.346-1.48-1.903-2.308c-0.563-0.834-1.047-1.728-1.438-2.649c-0.397-0.941-0.705-1.929-0.91-2.931 c-0.21-1.025-0.316-2.084-0.316-3.144c0-1.057,0.106-2.113,0.316-3.139c0.205-1.002,0.512-1.988,0.911-2.932 c0.391-0.925,0.874-1.815,1.436-2.647c0.559-0.825,1.198-1.603,1.903-2.307c0.705-0.706,1.48-1.346,2.307-1.904 c0.834-0.563,1.726-1.046,2.649-1.438c0.942-0.396,1.93-0.705,2.931-0.908c1.028-0.211,2.084-0.318,3.141-0.318 c1.058,0,2.114,0.107,3.142,0.318c1.002,0.203,1.987,0.511,2.931,0.908c0.926,0.392,1.815,0.873,2.649,1.438 c0.824,0.559,1.603,1.199,2.308,1.904c0.704,0.705,1.345,1.481,1.901,2.307c0.563,0.833,1.047,1.724,1.438,2.647 c0.396,0.943,0.705,1.93,0.909,2.932c0.211,1.025,0.315,2.082,0.315,3.139C40.42,25.885,40.314,26.94,40.104,27.969z"/><path d="M29.676,26.36c1.748,4.8,2.457,8.709,2.592,9.514c2.992-2.021,5.115-5.222,5.709-8.933 C37.701,26.85,33.975,25.674,29.676,26.36z"/><path d="M27.689,21.637c0.312,0.635,0.608,1.28,0.887,1.932c0.1,0.23,0.192,0.46,0.287,0.688 c4.576-0.574,9.084,0.396,9.274,0.437c-0.028-3.161-1.16-6.059-3.026-8.326C35.088,16.403,32.951,19.491,27.689,21.637z"/></symbol><symbol id="twitter-logo" viewBox="0 0 96 96"><title>twitter-logo</title><path style="fill:#030104;" d="M48,0C21.488,0,0,21.49,0,48c0,26.511,21.488,48,48,48c26.51,0,48-21.489,48-48 C96,21.49,74.51,0,48,0z M67.521,39.322c0.02,0.406,0.027,0.814,0.027,1.224c0,12.493-9.51,26.899-26.898,26.899 c-5.338,0-10.307-1.566-14.49-4.249c0.738,0.089,1.49,0.133,2.254,0.133c4.43,0,8.506-1.511,11.742-4.048 c-4.137-0.075-7.629-2.809-8.832-6.564c0.578,0.109,1.17,0.17,1.779,0.17c0.861,0,1.697-0.116,2.49-0.332 c-4.324-0.869-7.584-4.689-7.584-9.271c0-0.04,0-0.079,0.002-0.118c1.273,0.708,2.732,1.133,4.281,1.183 c-2.537-1.696-4.205-4.589-4.205-7.87c0-1.732,0.465-3.355,1.279-4.752c4.662,5.72,11.629,9.483,19.486,9.878 c-0.162-0.692-0.244-1.414-0.244-2.155c0-5.221,4.232-9.453,9.453-9.453c2.719,0,5.176,1.148,6.9,2.985 c2.154-0.424,4.178-1.21,6.004-2.294c-0.707,2.207-2.205,4.061-4.156,5.23c1.912-0.229,3.734-0.736,5.43-1.488 C70.973,36.324,69.369,37.99,67.521,39.322z"/></symbol></svg>